HIERARCHY
ROOT hip
{
  OFFSET 0 0 0
  CHANNELS 6 Xposition Yposition Zposition Zrotation Yrotation Xrotation
  JOINT abdomen
  {
    OFFSET 0 20.6881 -0.73152
    CHANNELS 3 Zrotation Xrotation Yrotation
    JOINT chest
    {
      OFFSET 0 11.7043 -0.48768
      CHANNELS 3 Zrotation Xrotation Yrotation
      JOINT neck
      {
        OFFSET 0 22.1894 -2.19456
        CHANNELS 3 Zrotation Xrotation Yrotation
        JOINT head
        {
          OFFSET -0.24384 7.07133 1.2192
          CHANNELS 3 Zrotation Xrotation Yrotation
          JOINT leftEye
          {
            OFFSET 4.14528 8.04674 8.04672
            CHANNELS 3 Zrotation Xrotation Yrotation
            End Site
            {
              OFFSET 1 0 0
            }
          }
          JOINT rightEye
          {
            OFFSET -3.6576 8.04674 8.04672
            CHANNELS 3 Zrotation Xrotation Yrotation
            End Site
            {
              OFFSET 1 0 0
            }
          }
        }
      }
      JOINT rCollar
      {
        OFFSET -2.68224 19.2634 -4.8768
        CHANNELS 3 Zrotation Xrotation Yrotation
        JOINT rShldr
        {
          OFFSET -8.77824 -1.95073 1.46304
          CHANNELS 3 Zrotation Xrotation Yrotation
          JOINT rForeArm
          {
            OFFSET -28.1742 -1.7115 0.48768
            CHANNELS 3 Zrotation Xrotation Yrotation
            JOINT rHand
            {
              OFFSET -22.5879 0.773209 7.07136
              CHANNELS 3 Zrotation Xrotation Yrotation
              JOINT rThumb1
              {
                OFFSET -1.2192 -0.487915 3.41376
                CHANNELS 3 Zrotation Xrotation Yrotation
                JOINT rThumb2
                {
                  OFFSET -3.37035 -0.52449 3.41376
                  CHANNELS 3 Zrotation Xrotation Yrotation
                  End Site
                  {
                    OFFSET -1.78271 -1.18214 1.43049
                  }
                }
              }
              JOINT rIndex1
              {
                OFFSET -7.75947 0.938293 5.60832
                CHANNELS 3 Zrotation Xrotation Yrotation
                JOINT rIndex2
                {
                  OFFSET -2.54057 -0.884171 1.56538
                  CHANNELS 3 Zrotation Xrotation Yrotation
                  End Site
                  {
                    OFFSET -1.62519 -0.234802 1.16502
                  }
                }
              }
              JOINT rMid1
              {
                OFFSET -8.24714 1.18213 3.41376
                CHANNELS 3 Zrotation Xrotation Yrotation
                JOINT rMid2
                {
                  OFFSET -3.10165 -0.590103 1.0647
                  CHANNELS 3 Zrotation Xrotation Yrotation
                  End Site
                  {
                    OFFSET -2.48547 -0.328903 0.83742
                  }
                }
              }
              JOINT rRing1
              {
                OFFSET -8.82822 0.546677 1.51678
                CHANNELS 3 Zrotation Xrotation Yrotation
                JOINT rRing2
                {
                  OFFSET -2.60934 -0.819778 -0.0198488
                  CHANNELS 3 Zrotation Xrotation Yrotation
                  End Site
                  {
                    OFFSET -2.33842 -0.294052 0.168128
                  }
                }
              }
              JOINT rPinky1
              {
                OFFSET -8.27202 -0.0477905 -0.4584
                CHANNELS 3 Zrotation Xrotation Yrotation
                JOINT rPinky2
                {
                  OFFSET -1.82734 -0.647385 -0.700984
                  CHANNELS 3 Zrotation Xrotation Yrotation
                  End Site
                  {
                    OFFSET -1.69225 -0.51767 -0.607171
                  }
                }
              }
            }
          }
        }
      }
      JOINT lCollar
      {
        OFFSET 2.68224 19.2634 -4.8768
        CHANNELS 3 Zrotation Xrotation Yrotation
        JOINT lShldr
        {
          OFFSET 8.77824 -1.95073 1.46304
          CHANNELS 3 Zrotation Xrotation Yrotation
          JOINT lForeArm
          {
            OFFSET 28.1742 -1.7115 0.48768
            CHANNELS 3 Zrotation Xrotation Yrotation
            JOINT lHand
            {
              OFFSET 22.5879 0.773209 7.07136
              CHANNELS 3 Zrotation Xrotation Yrotation
              JOINT lThumb1
              {
                OFFSET 1.2192 -0.487915 3.41376
                CHANNELS 3 Zrotation Xrotation Yrotation
                JOINT lThumb2
                {
                  OFFSET 3.37035 -0.52449 3.41376
                  CHANNELS 3 Zrotation Xrotation Yrotation
                  End Site
                  {
                    OFFSET 1.78271 -1.18214 1.43049
                  }
                }
              }
              JOINT lIndex1
              {
                OFFSET 7.75947 0.938293 5.60832
                CHANNELS 3 Zrotation Xrotation Yrotation
                JOINT lIndex2
                {
                  OFFSET 2.54057 -0.884171 1.56538
                  CHANNELS 3 Zrotation Xrotation Yrotation
                  End Site
                  {
                    OFFSET 1.62519 -0.234802 1.16502
                  }
                }
              }
              JOINT lMid1
              {
                OFFSET 8.24714 1.18213 3.41376
                CHANNELS 3 Zrotation Xrotation Yrotation
                JOINT lMid2
                {
                  OFFSET 3.10165 -0.590103 1.0647
                  CHANNELS 3 Zrotation Xrotation Yrotation
                  End Site
                  {
                    OFFSET 2.48547 -0.328903 0.83742
                  }
                }
              }
              JOINT lRing1
              {
                OFFSET 8.82822 0.546677 1.51678
                CHANNELS 3 Zrotation Xrotation Yrotation
                JOINT lRing2
                {
                  OFFSET 2.60934 -0.819778 -0.0198488
                  CHANNELS 3 Zrotation Xrotation Yrotation
                  End Site
                  {
                    OFFSET 2.33842 -0.294052 0.168128
                  }
                }
              }
              JOINT lPinky1
              {
                OFFSET 8.27202 -0.0477905 -0.4584
                CHANNELS 3 Zrotation Xrotation Yrotation
                JOINT lPinky2
                {
                  OFFSET 1.82734 -0.647385 -0.700984
                  CHANNELS 3 Zrotation Xrotation Yrotation
                  End Site
                  {
                    OFFSET 1.69225 -0.51767 -0.607171
                  }
                }
              }
            }
          }
        }
      }
    }
  }
  JOINT rButtock
  {
    OFFSET -8.77824 4.35084 1.2192
    CHANNELS 3 Zrotation Xrotation Yrotation
    JOINT rThigh
    {
      OFFSET 0 -1.70687 -2.19456
      CHANNELS 3 Zrotation Xrotation Yrotation
      JOINT rShin
      {
        OFFSET 0 -36.8199 0.73152
        CHANNELS 3 Zrotation Xrotation Yrotation
        JOINT rFoot
        {
          OFFSET 0.73152 -45.1104 -5.12064
          CHANNELS 3 Zrotation Xrotation Yrotation
          End Site
          {
            OFFSET -1.1221 -3.69964 12.103
          }
        }
      }
    }
  }
  JOINT lButtock
  {
    OFFSET 8.77824 4.35084 1.2192
    CHANNELS 3 Zrotation Xrotation Yrotation
    JOINT lThigh
    {
      OFFSET 0 -1.70687 -2.19456
      CHANNELS 3 Zrotation Xrotation Yrotation
      JOINT lShin
      {
        OFFSET 0 -36.8199 0.73152
        CHANNELS 3 Zrotation Xrotation Yrotation
        JOINT lFoot
        {
          OFFSET -0.73152 -45.1104 -5.12064
          CHANNELS 3 Zrotation Xrotation Yrotation
          End Site
          {
            OFFSET 1.1221 -3.69964 12.103
          }
        }
      }
    }
  }
}
MOTION
Frames:	6
Frame Time:	0.00833333
41.7772 83.0697 42.877 0.0 0.0 0.0 -3.29136 -0.00198977 -0.0897034 -0.910424 0.0108485 -0.157554 -3.41228e-14 -7.95139e-16 -2.48481e-16 -1.01902e-13 3.18055e-15 -8.47941e-16 -0.0 0.0 0.0 -0.0 0.0 0.0 -1.70974e-14 -2.32951e-18 2.48481e-16 -3.57949e-13 4.34841e-17 -2.98177e-15 -6.16695e-12 1.85486e-12 3.18055e-15 -7.07888e-11 -1.8736e-12 -6.23389e-13 -1.6693e-10 -4.35333e-14 -1.29767e-12 -2.88286e-10 -7.95139e-14 -2.22639e-12 -1.66925e-10 -4.29375e-14 -1.30085e-12 7.73091 5.47488 0.417314 -1.66931e-10 -4.40308e-14 -1.28812e-12 2.90554 0.965183 0.102902 -1.66927e-10 -4.35338e-14 -1.29051e-12 10.2786 0.731801 0.0259123 -1.66935e-10 -3.93594e-14 -1.28176e-12 2.22167 -0.733487 -0.20892 -1.71941e-14 -3.68839e-18 -1.49089e-16 -3.60677e-13 -1.55301e-16 -4.57205e-15 -6.20114e-12 -1.84929e-12 3.18055e-15 -7.07303e-11 1.82569e-12 -5.94764e-13 -1.66874e-10 -5.32046e-14 -1.28494e-12 -2.88171e-10 -9.22361e-14 -2.2089e-12 -1.66878e-10 -5.40694e-14 -1.27858e-12 -7.73091 5.47488 -0.417314 -1.66873e-10 -5.33737e-14 -1.28494e-12 -2.90554 0.965183 -0.102902 -1.66875e-10 -5.33737e-14 -1.28653e-12 -10.2786 0.731801 -0.0259123 -1.66868e-10 -5.04913e-14 -1.29767e-12 -2.22167 -0.733487 0.20892 -2.03217e-16 0.0 -3.88251e-19 -2.14594 -1.93292 0.018457 -0.00776972 -2.07877 -0.0632988 -0.350525 4.00071 0.116479 2.03217e-16 0.0 3.88251e-19 -2.88625 -9.67655 0.339434 -0.00998731 11.9452 -0.261245 0.464273 -2.27956 -0.00650892
41.803 79.8872 33.2129 -178.413 2.1957 -159.986 -4.20608 -5.27229 0.797154 -0.697595 0.345573 0.351259 2.60714 -3.0754 2.90639 -2.9257 1.45652 4.52174 -0.0 0.0 0.0 -0.0 0.0 0.0 -6.50613e-15 -9.31233e-14 8.53066e-15 21.042 3.96862 -0.888908 -5.02627 -2.47113 7.63663 0.0019796 -0.988296 -0.138822 -2.3784e-11 -4.64903e-10 4.96723e-10 -4.11998e-11 -8.02244e-10 8.59377e-10 -2.37805e-11 -4.64901e-10 4.96718e-10 7.73091 5.47488 0.417314 -2.37862e-11 -4.64902e-10 4.96732e-10 2.90554 0.965183 0.102902 -2.37813e-11 -4.64902e-10 4.96729e-10 10.2786 0.731801 0.0259123 -2.37867e-11 -4.64899e-10 4.96737e-10 2.22167 -0.733487 -0.20892 -6.62266e-15 -9.31179e-14 8.18977e-15 -19.9692 6.25543 2.25288 3.51023 -1.47587 -5.60509 -0.238632 -10.8734 1.43067 -5.08164e-10 -7.77743e-11 -4.50149e-10 -8.64671e-10 -1.26552e-10 -7.87461e-10 -5.08167e-10 -7.77756e-11 -4.50144e-10 -7.73091 5.47488 -0.417314 -5.08164e-10 -7.77749e-11 -4.50149e-10 -2.90554 0.965183 -0.102902 -5.08167e-10 -7.77751e-11 -4.50149e-10 -10.2786 0.731801 -0.0259123 -5.08157e-10 -7.77729e-11 -4.50159e-10 -2.22167 -0.733487 0.20892 -2.03217e-16 0.0 -3.88251e-19 -2.15967 -11.0275 4.56171 0.0312285 7.21803 0.132824 -0.527953 -0.609397 -3.20015 2.03217e-16 0.0 3.88251e-19 -3.95505 -16.5664 -1.74207 -0.0215564 16.9121 -0.29982 0.732297 -3.55893 4.08825
41.7351 79.8804 33.2328 -178.5 2.063 -159.898 -4.99478 -10.8297 1.75695 -0.479838 0.695993 0.888031 5.69144 -6.31917 5.99531 -6.26049 2.97335 9.29205 -0.0 0.0 0.0 -0.0 0.0 0.0 3.91629e-15 -1.80206e-13 1.94436e-14 43.4178 8.18419 -1.83371 -9.63692 -4.9425 15.765 -0.00114825 -2.03898 -0.286548 1.10777e-10 -8.71786e-10 9.80157e-10 1.90942e-10 -1.50404e-09 1.69582e-09 1.10779e-10 -8.71784e-10 9.8015e-10 7.73091 5.47488 0.417314 1.10773e-10 -8.71785e-10 9.80165e-10 2.90554 0.965183 0.102902 1.10779e-10 -8.71785e-10 9.8016e-10 10.2786 0.731801 0.0259123 1.10777e-10 -8.71782e-10 9.80168e-10 2.22167 -0.733487 -0.20892 3.78058e-15 -1.80194e-13 1.91641e-14 -41.6326 12.8284 4.71894 6.90511 -2.98671 -11.5367 0.142802 -22.3352 3.12377 -8.0322e-10 -1.47584e-10 -8.85753e-10 -1.36178e-09 -2.3969e-10 -1.54852e-09 -8.03222e-10 -1.47586e-10 -8.85752e-10 -7.73091 5.47488 -0.417314 -8.03221e-10 -1.47585e-10 -8.85753e-10 -2.90554 0.965183 -0.102902 -8.03226e-10 -1.47586e-10 -8.85753e-10 -10.2786 0.731801 -0.0259123 -8.03214e-10 -1.47584e-10 -8.85761e-10 -2.22167 -0.733487 0.20892 -2.03217e-16 0.0 -3.88251e-19 -0.510263 -20.4275 9.81371 0.000559165 17.0397 0.353034 -1.29459 -5.44508 -6.71892 2.03217e-16 0.0 3.88251e-19 -5.67107 -23.8005 -4.13405 -0.0257754 22.1624 -0.345573 1.21472 -4.87537 8.44173
41.6656 79.8708 33.2561 -178.581 1.9005 -159.798 -5.53024 -15.7982 2.66135 -0.289773 1.01475 1.36908 8.76359 -9.1307 8.81922 -9.46124 4.26077 13.5991 -0.0 0.0 0.0 -0.0 0.0 0.0 1.46764e-14 -2.79365e-13 2.5095e-14 63.5021 11.8943 -2.71874 -13.1492 -6.88776 23.0644 -0.00844467 -2.96482 -0.416961 2.62508e-10 -1.39462e-09 1.49277e-09 4.52973e-10 -2.40657e-09 2.58258e-09 2.62509e-10 -1.39462e-09 1.49276e-09 7.73091 5.47488 0.417314 2.62503e-10 -1.39462e-09 1.49277e-09 2.90554 0.965183 0.102902 2.6251e-10 -1.39462e-09 1.49277e-09 10.2786 0.731801 0.0259123 2.62509e-10 -1.39462e-09 1.49277e-09 2.22167 -0.733487 -0.20892 1.45202e-14 -2.79346e-13 2.48675e-14 -61.4489 18.647 7.09246 9.67621 -4.25841 -16.8576 1.16857 -32.5309 5.00118 -1.19074e-09 -2.33217e-10 -1.34788e-09 -2.01767e-09 -3.7947e-10 -2.35797e-09 -1.19074e-09 -2.33219e-10 -1.34788e-09 -7.73091 5.47488 -0.417314 -1.19074e-09 -2.33218e-10 -1.34788e-09 -2.90554 0.965183 -0.102902 -1.19075e-09 -2.33219e-10 -1.34787e-09 -10.2786 0.731801 -0.0259123 -1.19074e-09 -2.33218e-10 -1.34788e-09 -2.22167 -0.733487 0.20892 -2.03217e-16 0.0 -3.88251e-19 2.60394 -28.4476 15.2765 -0.0976885 25.8105 0.579656 -2.49207 -9.68666 -9.97595 2.03217e-16 0.0 3.88251e-19 -7.806 -30.2029 -6.57402 -0.0213707 26.8456 -0.391588 1.81422 -6.0043 12.3227
41.6099 79.8632 33.2803 -178.609 1.6786 -159.705 -5.79088 -19.3084 3.34209 -0.156704 1.25462 1.71065 11.1342 -10.9523 10.8833 -11.8455 5.07739 16.7154 -0.0 0.0 0.0 -0.0 0.0 0.0 2.62805e-14 -4.08713e-13 1.75924e-14 77.592 14.3513 -3.40463 -15.2681 -8.02453 28.1421 -0.0157322 -3.57858 -0.503599 4.57163e-10 -2.20733e-09 2.07831e-09 7.89729e-10 -3.81093e-09 3.59516e-09 4.57164e-10 -2.20733e-09 2.0783e-09 7.73091 5.47488 0.417314 4.57157e-10 -2.20733e-09 2.07832e-09 2.90554 0.965183 0.102902 4.57165e-10 -2.20733e-09 2.07831e-09 10.2786 0.731801 0.0259123 4.57165e-10 -2.20733e-09 2.07832e-09 2.22167 -0.733487 -0.20892 2.61008e-14 -4.08691e-13 1.73937e-14 -75.5473 22.6911 8.9216 11.4822 -5.09201 -20.612 2.41282 -39.6442 6.68715 -1.80943e-09 -3.58404e-10 -1.8763e-09 -3.07051e-09 -5.85855e-10 -3.28839e-09 -1.80943e-09 -3.58406e-10 -1.8763e-09 -7.73091 5.47488 -0.417314 -1.80943e-09 -3.58406e-10 -1.8763e-09 -2.90554 0.965183 -0.102902 -1.80944e-09 -3.58407e-10 -1.87629e-09 -10.2786 0.731801 -0.0259123 -1.80942e-09 -3.58406e-10 -1.8763e-09 -2.22167 -0.733487 0.20892 -2.03217e-16 0.0 -3.88251e-19 5.84549 -33.7365 19.7549 -0.215128 31.9552 0.768963 -3.64267 -12.5855 -12.4175 2.03217e-16 0.0 3.88251e-19 -9.73308 -34.6528 -8.56313 -0.0129824 30.1114 -0.4267 2.32214 -6.76479 14.9852
41.5489 79.8547 33.3046 -178.658 1.4735 -159.609 -5.83774 -20.7874 3.62873 -0.0997632 1.38447 1.87831 12.2128 -11.4535 11.8144 -12.8731 5.30376 18.1401 -0.0 0.0 0.0 -0.0 0.0 0.0 4.2824e-14 -6.36803e-13 -1.53305e-14 83.161 15.0589 -3.76281 -15.9801 -8.36925 30.015 -0.0183383 -3.74591 -0.52726 7.77195e-10 -3.77437e-09 3.01973e-09 1.34417e-09 -6.52015e-09 5.22269e-09 7.77196e-10 -3.77436e-09 3.01972e-09 7.73091 5.47488 0.417314 7.77189e-10 -3.77437e-09 3.01974e-09 2.90554 0.965183 0.102902 7.77198e-10 -3.77436e-09 3.01973e-09 10.2786 0.731801 0.0259123 7.77196e-10 -3.77436e-09 3.01974e-09 2.22167 -0.733487 -0.20892 4.26048e-14 -6.36781e-13 -1.55378e-14 -81.1011 24.3364 9.7629 12.1894 -5.42229 -22.1475 3.07577 -42.5186 7.4986 -3.06084e-09 -5.9802e-10 -2.69183e-09 -5.20706e-09 -9.83494e-10 -4.73247e-09 -3.06084e-09 -5.98023e-10 -2.69183e-09 -7.73091 5.47488 -0.417314 -3.06084e-09 -5.98023e-10 -2.69184e-09 -2.90554 0.965183 -0.102902 -3.06085e-09 -5.98024e-10 -2.69183e-09 -10.2786 0.731801 -0.0259123 -3.06083e-09 -5.98024e-10 -2.69184e-09 -2.22167 -0.733487 0.20892 -2.03217e-16 0.0 -3.88251e-19 7.3513 -35.7744 21.7209 -0.275034 34.4205 0.858005 -4.21175 -13.7134 -13.5817 2.03217e-16 0.0 3.88251e-19 -10.6881 -36.463 -9.508 -0.00847047 31.3884 -0.439728 2.53544 -7.07073 15.9233
